<mxfile host="app.diagrams.net" modified="2023-06-21T07:29:55.652Z" agent="Mozilla/5.0 (Windows NT 10.0; Win64; x64) AppleWebKit/537.36 (KHTML, like Gecko) Chrome/113.0.0.0 Safari/537.36" etag="aEIOgTnyFOg-qB3uj_tN" version="21.3.5" type="github">
  <diagram name="第 1 页" id="8_wMexKujFlNzlI4Z4tQ">
    <mxGraphModel dx="819" dy="437" grid="1" gridSize="10" guides="1" tooltips="1" connect="1" arrows="1" fold="1" page="1" pageScale="1" pageWidth="1169" pageHeight="827" math="0" shadow="0">
      <root>
        <mxCell id="0" />
        <mxCell id="1" parent="0" />
        <mxCell id="YQnEnwThoqy6UyXnlnFH-2" value="always @(*) begin&lt;br&gt;&amp;nbsp; &amp;nbsp; i = 0;&lt;br&gt;&amp;nbsp; &amp;nbsp; while (i &amp;lt; num) begin&lt;br&gt;&amp;nbsp; &amp;nbsp; &amp;nbsp; &amp;nbsp; sum = sum + i + 1;&lt;br&gt;&amp;nbsp; &amp;nbsp; end&lt;br&gt;end" style="text;html=1;strokeColor=none;fillColor=none;align=left;verticalAlign=middle;whiteSpace=wrap;rounded=0;fontFamily=Lucida Console;" vertex="1" parent="1">
          <mxGeometry x="20" y="30" width="230" height="110" as="geometry" />
        </mxCell>
        <mxCell id="YQnEnwThoqy6UyXnlnFH-3" value="Mux" style="shadow=0;dashed=0;align=center;html=1;strokeWidth=1;shape=mxgraph.electrical.abstract.mux2;whiteSpace=wrap;flipH=0;flipV=0;" vertex="1" parent="1">
          <mxGeometry x="300" y="280" width="80" height="130" as="geometry" />
        </mxCell>
        <mxCell id="YQnEnwThoqy6UyXnlnFH-6" style="edgeStyle=orthogonalEdgeStyle;rounded=0;orthogonalLoop=1;jettySize=auto;html=1;entryX=0;entryY=0.21666666666666667;entryDx=0;entryDy=3;entryPerimeter=0;exitX=1;exitY=0.5;exitDx=0;exitDy=0;" edge="1" parent="1" source="YQnEnwThoqy6UyXnlnFH-10" target="YQnEnwThoqy6UyXnlnFH-3">
          <mxGeometry relative="1" as="geometry">
            <mxPoint x="260" y="312.02857142857135" as="sourcePoint" />
          </mxGeometry>
        </mxCell>
        <mxCell id="YQnEnwThoqy6UyXnlnFH-8" style="edgeStyle=orthogonalEdgeStyle;rounded=0;orthogonalLoop=1;jettySize=auto;html=1;entryX=0;entryY=0.5;entryDx=0;entryDy=0;" edge="1" parent="1" source="YQnEnwThoqy6UyXnlnFH-7" target="YQnEnwThoqy6UyXnlnFH-10">
          <mxGeometry relative="1" as="geometry">
            <mxPoint x="200" y="312" as="targetPoint" />
          </mxGeometry>
        </mxCell>
        <mxCell id="YQnEnwThoqy6UyXnlnFH-9" style="edgeStyle=orthogonalEdgeStyle;rounded=0;orthogonalLoop=1;jettySize=auto;html=1;exitX=1;exitY=0.5;exitDx=0;exitDy=0;exitPerimeter=0;entryX=0;entryY=0.65;entryDx=0;entryDy=3;entryPerimeter=0;" edge="1" parent="1" source="YQnEnwThoqy6UyXnlnFH-7" target="YQnEnwThoqy6UyXnlnFH-3">
          <mxGeometry relative="1" as="geometry">
            <Array as="points">
              <mxPoint x="170" y="312" />
              <mxPoint x="170" y="368" />
              <mxPoint x="300" y="368" />
            </Array>
          </mxGeometry>
        </mxCell>
        <mxCell id="YQnEnwThoqy6UyXnlnFH-7" value="" style="verticalLabelPosition=bottom;shadow=0;dashed=0;align=center;html=1;verticalAlign=top;shape=mxgraph.electrical.abstract.dac;" vertex="1" parent="1">
          <mxGeometry x="90" y="294.5" width="50" height="35" as="geometry" />
        </mxCell>
        <mxCell id="YQnEnwThoqy6UyXnlnFH-10" value="body" style="rounded=0;whiteSpace=wrap;html=1;" vertex="1" parent="1">
          <mxGeometry x="200" y="291.5" width="60" height="41" as="geometry" />
        </mxCell>
        <mxCell id="YQnEnwThoqy6UyXnlnFH-14" style="edgeStyle=orthogonalEdgeStyle;rounded=0;orthogonalLoop=1;jettySize=auto;html=1;exitX=1;exitY=0.5;exitDx=0;exitDy=0;entryX=0.375;entryY=1;entryDx=10;entryDy=0;entryPerimeter=0;" edge="1" parent="1" source="YQnEnwThoqy6UyXnlnFH-11" target="YQnEnwThoqy6UyXnlnFH-3">
          <mxGeometry relative="1" as="geometry" />
        </mxCell>
        <mxCell id="YQnEnwThoqy6UyXnlnFH-16" style="edgeStyle=orthogonalEdgeStyle;rounded=0;orthogonalLoop=1;jettySize=auto;html=1;exitX=1;exitY=0.5;exitDx=0;exitDy=0;entryX=0.375;entryY=1;entryDx=10;entryDy=0;entryPerimeter=0;" edge="1" parent="1" source="YQnEnwThoqy6UyXnlnFH-11" target="YQnEnwThoqy6UyXnlnFH-15">
          <mxGeometry relative="1" as="geometry">
            <Array as="points">
              <mxPoint x="340" y="460" />
              <mxPoint x="340" y="500" />
              <mxPoint x="420" y="500" />
              <mxPoint x="420" y="704" />
            </Array>
          </mxGeometry>
        </mxCell>
        <mxCell id="YQnEnwThoqy6UyXnlnFH-11" value="cond" style="rounded=0;whiteSpace=wrap;html=1;" vertex="1" parent="1">
          <mxGeometry x="200" y="440" width="60" height="41" as="geometry" />
        </mxCell>
        <mxCell id="YQnEnwThoqy6UyXnlnFH-13" style="edgeStyle=orthogonalEdgeStyle;rounded=0;orthogonalLoop=1;jettySize=auto;html=1;exitX=1;exitY=0.5;exitDx=0;exitDy=0;exitPerimeter=0;entryX=0;entryY=0.5;entryDx=0;entryDy=0;" edge="1" parent="1" source="YQnEnwThoqy6UyXnlnFH-12" target="YQnEnwThoqy6UyXnlnFH-11">
          <mxGeometry relative="1" as="geometry" />
        </mxCell>
        <mxCell id="YQnEnwThoqy6UyXnlnFH-19" style="edgeStyle=orthogonalEdgeStyle;rounded=0;orthogonalLoop=1;jettySize=auto;html=1;entryX=0;entryY=0.5;entryDx=0;entryDy=0;" edge="1" parent="1" source="YQnEnwThoqy6UyXnlnFH-12" target="YQnEnwThoqy6UyXnlnFH-17">
          <mxGeometry relative="1" as="geometry">
            <Array as="points">
              <mxPoint x="170" y="460" />
              <mxPoint x="170" y="676" />
            </Array>
          </mxGeometry>
        </mxCell>
        <mxCell id="YQnEnwThoqy6UyXnlnFH-20" style="edgeStyle=orthogonalEdgeStyle;rounded=0;orthogonalLoop=1;jettySize=auto;html=1;exitX=1;exitY=0.5;exitDx=0;exitDy=0;exitPerimeter=0;entryX=0;entryY=0.20238095238095238;entryDx=0;entryDy=3;entryPerimeter=0;" edge="1" parent="1" source="YQnEnwThoqy6UyXnlnFH-12" target="YQnEnwThoqy6UyXnlnFH-15">
          <mxGeometry relative="1" as="geometry">
            <Array as="points">
              <mxPoint x="170" y="460" />
              <mxPoint x="170" y="640" />
            </Array>
          </mxGeometry>
        </mxCell>
        <mxCell id="YQnEnwThoqy6UyXnlnFH-12" value="" style="verticalLabelPosition=bottom;shadow=0;dashed=0;align=center;html=1;verticalAlign=top;shape=mxgraph.electrical.abstract.dac;" vertex="1" parent="1">
          <mxGeometry x="90" y="443" width="50" height="35" as="geometry" />
        </mxCell>
        <mxCell id="YQnEnwThoqy6UyXnlnFH-21" style="edgeStyle=orthogonalEdgeStyle;rounded=0;orthogonalLoop=1;jettySize=auto;html=1;exitX=1;exitY=0.5;exitDx=0;exitDy=-5;exitPerimeter=0;" edge="1" parent="1" source="YQnEnwThoqy6UyXnlnFH-15">
          <mxGeometry relative="1" as="geometry">
            <mxPoint x="180" y="460" as="targetPoint" />
          </mxGeometry>
        </mxCell>
        <mxCell id="YQnEnwThoqy6UyXnlnFH-15" value="Mux" style="shadow=0;dashed=0;align=center;html=1;strokeWidth=1;shape=mxgraph.electrical.abstract.mux2;whiteSpace=wrap;flipH=0;flipV=0;" vertex="1" parent="1">
          <mxGeometry x="285" y="620" width="80" height="84" as="geometry" />
        </mxCell>
        <mxCell id="YQnEnwThoqy6UyXnlnFH-18" style="edgeStyle=orthogonalEdgeStyle;rounded=0;orthogonalLoop=1;jettySize=auto;html=1;entryX=0;entryY=0.6071428571428572;entryDx=0;entryDy=3;entryPerimeter=0;" edge="1" parent="1" source="YQnEnwThoqy6UyXnlnFH-17" target="YQnEnwThoqy6UyXnlnFH-15">
          <mxGeometry relative="1" as="geometry" />
        </mxCell>
        <mxCell id="YQnEnwThoqy6UyXnlnFH-17" value="inc" style="rounded=0;whiteSpace=wrap;html=1;" vertex="1" parent="1">
          <mxGeometry x="190" y="660" width="40" height="31" as="geometry" />
        </mxCell>
      </root>
    </mxGraphModel>
  </diagram>
</mxfile>
